<svg width="135" height="45" viewBox="0 0 135 45" fill="none" xmlns="http://www.w3.org/2000/svg">
<g id="Unum_Group_logo 1" clip-path="url(#clip0_202_1969)">
<g id="Symbols">
<g id="footer">
<g id="logo-/-unum-full-color">
<g id="logo_unum_full_color">
<path id="Fill-1" d="M72.0233 43.807C82.7386 43.807 85.1522 36.8265 85.1522 32.0331V17.9194H77.2516V31.4947C77.2516 35.2166 75.168 36.8446 72.0233 36.8446C68.8747 36.8446 66.7912 35.2166 66.7912 31.4947V17.9194H58.8906V32.0331C58.8906 36.8265 61.3042 43.8096 72.0259 43.8096" fill="#004276"/>
<path id="Fill-2" d="M13.3091 43.807C24.0244 43.807 26.4392 36.8265 26.4392 32.0331V17.9194H18.5412V31.4947C18.5412 35.2166 16.4538 36.8446 13.3091 36.8446C10.1605 36.8446 8.07183 35.2166 8.07183 31.4947V17.9194H0.173828V32.0331C0.173828 36.8265 2.59383 43.8096 13.3091 43.8096" fill="#004276"/>
<path id="Fill-3" d="M42.6675 16.939C31.9496 16.939 29.5322 23.9181 29.5322 28.7116V42.8239H37.4328V29.2486C37.4328 25.5345 39.5202 23.9039 42.6688 23.9039C45.8135 23.9039 47.897 25.5345 47.897 29.2486V42.8239H55.7976V28.7128C55.7976 23.9194 53.3828 16.9403 42.6701 16.9403" fill="#004276"/>
<path id="Fill-4" d="M108.832 20.9374C108.49 20.4819 106.477 16.9386 100.013 16.9386C93.4294 16.9386 88.2451 20.2322 88.2451 28.191V42.8236H95.9671V28.178C95.9671 25.6131 97.2781 23.6486 100.465 23.6486C103.662 23.6486 104.966 25.6131 104.966 28.178V42.8274H112.692V28.1742C112.692 25.6092 113.997 23.6447 117.188 23.6447C120.382 23.6447 121.692 25.6092 121.692 28.1742V42.8236H129.408V28.1871C129.408 20.2283 124.223 16.936 117.642 16.936C111.19 16.936 109.17 20.4793 108.833 20.9349" fill="#004276"/>
<path id="Fill-5" d="M36.1709 7.42455C36.1709 11.0222 39.0438 13.7916 42.6635 13.7916C46.2482 13.7916 49.0694 11.0222 49.0694 7.42455C49.0694 3.83079 46.2482 1.06396 42.6635 1.06396C39.0425 1.06396 36.1709 3.83208 36.1709 7.42455Z" fill="#547083"/>
<path id="Fill-6" d="M65.5229 7.42455C65.5229 11.0222 68.3985 13.7916 72.0194 13.7916C75.6041 13.7916 78.4253 11.0222 78.4253 7.42455C78.4253 3.83079 75.6041 1.06396 72.0194 1.06396C68.3985 1.06396 65.5229 3.83208 65.5229 7.42455Z" fill="#547083"/>
<path id="Fill-7" d="M102.334 7.42438C102.334 11.022 105.21 13.7914 108.831 13.7914C112.415 13.7914 115.236 11.022 115.236 7.42438C115.234 3.83191 112.413 1.0625 108.828 1.0625C105.207 1.0625 102.332 3.83191 102.332 7.42438" fill="#547083"/>
<path id="Fill-8" d="M131.659 17.7413C131.554 17.7429 131.451 17.7586 131.351 17.7878V18.9137H131.589C132.013 18.9137 132.343 18.7584 132.343 18.29C132.343 17.85 131.967 17.7413 131.659 17.7413ZM132.42 20.6271L131.444 19.2075H131.351V20.631H130.911V17.5433C131.118 17.4423 131.403 17.3789 131.696 17.3789C132.343 17.3789 132.799 17.7413 132.799 18.2913C132.799 18.8218 132.421 19.1247 131.914 19.1764L132.953 20.6297H132.422L132.42 20.6271ZM131.805 16.7383C130.511 16.7383 129.481 17.7956 129.481 19.0833C129.481 20.3644 130.51 21.4075 131.804 21.4075C132.108 21.4075 132.41 21.3474 132.692 21.2305C132.973 21.1137 133.229 20.9425 133.444 20.7267C133.659 20.5109 133.83 20.2548 133.946 19.973C134.062 19.6912 134.121 19.3893 134.12 19.0845C134.12 17.7969 133.089 16.7396 131.804 16.7396L131.805 16.7383ZM131.805 21.8087C131.447 21.8097 131.092 21.7399 130.761 21.6034C130.43 21.4669 130.129 21.2663 129.876 21.0131C129.623 20.76 129.422 20.4593 129.285 20.1283C129.149 19.7974 129.079 19.4426 129.08 19.0845C129.079 18.7258 129.148 18.3705 129.285 18.0387C129.421 17.7069 129.621 17.4053 129.874 17.151C130.127 16.8967 130.428 16.6947 130.759 16.5566C131.09 16.4186 131.445 16.347 131.804 16.3462C133.305 16.3462 134.528 17.5717 134.528 19.0833C134.528 20.5974 133.305 21.8087 131.805 21.8087Z" fill="#004276"/>
</g>
</g>
</g>
</g>
</g>
<defs>
<clipPath id="clip0_202_1969">
<rect width="134.588" height="44" fill="white" transform="translate(0.173828 0.997559)"/>
</clipPath>
</defs>
</svg>
