<?xml version="1.0" encoding="UTF-8"?><svg id="Layer_2" xmlns="http://www.w3.org/2000/svg" viewBox="0 0 264.97 60.5"><g id="Layer_1-2"><path d="m259.8,0L35.85.05c-4.46,0-9.9,3.63-12.09,8.07L.91,52.42c-2.18,4.45-.32,8.08,4.14,8.08h224.16c4.46,0,9.9-3.64,12.08-8.08l22.78-44.3c2.19-4.44.23-8.08-4.23-8.08" style="fill:#ee3124; stroke-width:0px;"/><path d="m232.44,49.02c-1.17.02-2.12-.91-2.14-2.08-.02-1.17.91-2.12,2.08-2.14,1.17-.02,2.12.91,2.14,2.08,0,0,0,.01,0,.02.01,1.16-.92,2.11-2.08,2.12h0m0-4.71c-1.45.03-2.6,1.22-2.57,2.67.03,1.45,1.22,2.6,2.67,2.57,1.44-.03,2.59-1.21,2.57-2.65-.03-1.45-1.22-2.6-2.67-2.59" style="fill:#11377d; stroke-width:0px;"/><path d="m232.8,46.67c-.11.08-.25.12-.39.12h-.42v-.66h.41c.13-.01.27.02.38.09.12.1.14.28.04.41-.01.02-.03.03-.04.04m.64-.2c0-.15-.04-.3-.12-.43-.08-.12-.2-.21-.34-.26-.26-.07-.53-.1-.8-.08h-.71v2.47h.52v-1h.48l.45,1h.51l-.48-1.08c.15-.05.28-.13.38-.25.08-.1.12-.23.11-.36" style="fill:#11377d; stroke-width:0px;"/><path d="m236.21,22.93h0c-1.3-2.39-5.19-4.7-11.22-4.75h-.09c-5.11-.03-10.08,1.66-14.1,4.81-.11-.27-.24-.54-.39-.79-2-3.37-6.38-3.86-10-3.9-2.97-.09-5.94.32-8.78,1.21l-.57-.13c-2.57-1-5.32-1.43-8.07-1.27-1.12.01-2.24.11-3.35.28h-3.56l4.31-7.95h-34.91l-4.78,8.85c-1.58-.59-3.25-.9-4.93-.9h0c-5.88,0-11.53,2.25-15.8,6.28-.17-.48-.39-.95-.65-1.39-2.13-3.57-6.56-4.84-10-4.83h0c-5.32-.02-10.48,1.81-14.59,5.19-.14-.46-.34-.91-.58-1.33-2-3.37-6.39-3.85-10-3.9-4.13-.18-8.24.69-11.94,2.54.27-2.13-.3-4.28-1.58-6-1.78-2.41-4.75-3.83-8.83-4.28-1.02-.11-2.04-.16-3.07-.16h-18l-20.09,39.22h18.35l3.29-6.24c-.41,1.42-.19,2.94.61,4.18.88,1.34,2.4,2.12,4,2.06h15.15c1.13.43,2.33.65,3.54.65,2.96.04,5.89-.59,8.57-1.83,1.05.76,2.31,1.17,3.6,1.16h15.47c1.07.31,2.18.5,3.29.56h.2c6.53,0,11.76-2.09,15.85-6.33.19.52.43,1.03.72,1.51,1.82,3.07,5.26,4.78,9.69,4.8h.19c4.35.1,8.64-1.06,12.34-3.34l-1.46,2.87h32.88s4.88-10.41,6.34-13.19h0s1.43-2.94,4-3l-1.52,2.71c-1.06,2-2.35,4.44-2.14,7.09.15,2.01,1.15,3.86,2.76,5.08.32.24.65.45,1,.65,1.38.76,2.94,1.14,4.52,1.11,2.95.04,5.88-.58,8.56-1.82,1.04.89,2.37,1.36,3.73,1.32h13.63c1.73.36,3.49.53,5.25.49h.36c7.94,0,15.16-4.32,19.83-11.85,1.35-2.09,2.43-4.34,3.23-6.7h0c1.64-4.34.61-7.28-.27-8.77" style="fill:#11377d; stroke-width:0px;"/><path d="m185.96,21.74c-.85-.13-6.17-.8-10.57,1.64-.12.17.68-1.36.68-1.36h-8.33l-11.83,24.11h8.89s5.91-12.72,7.33-14.44c2.4-2.94,3.66-3.38,10.53-3.38l3.3-6.57Z" style="fill:#fff; stroke-width:0px;"/><path d="m233.26,27.05c-.01-.45-.08-.9-.19-1.34-1-2.67-4.36-3.86-7.36-3.86-6.87,0-13.89,3.46-18.33,11.74-4.3,8-1.33,12.84,5,13.12h.63c5.62-.08,12-2.79,16.53-10h-8.05c-1.26,1.91-3.44,3.57-5.6,3.57-2.44,0-2.78-2-.81-5.66.53-.97,1.16-1.89,1.87-2.74,1.27-2,2.78-3.6,5.12-3.71.74-.13,1.5.18,1.93.8h0c.08.08.15.16.2.26.32.62.38,1.34.18,2h7.86c.25-.49.47-1,.66-1.52.2-.85.3-1.72.29-2.6h0" style="fill:#fff; stroke-width:0px;"/><path d="m55.94,25.39c-.45.55-.98,1.04-1.58,1.43-1.21.6-2.56.86-3.9.75h-4.4l3.41-6.65h5c1.34,0,2.08.4,2.41,1,.53.95,0,2.4-.94,3.48m1.93,5.7c3.05-.77,5.82-2.37,8-4.64.8-.87,1.47-1.85,2-2.91.42-.83.71-1.72.87-2.63.61-3.64-1.81-6.22-7.29-6.83-.89-.1-1.78-.14-2.67-.14h-15.9l-16.56,32.27h10.26l5.86-11.46h4.17c1.47.11,3.67.76,2.26,3.77l-2.85,5.56h0s0,.04,0,.06c-.16.32-.91,2,.89,2h9.73c-.37-.8-.31-1.73.16-2.48l2.08-4,.15-.29c3.14-6.07,1.08-7.11-1.18-8.38" style="fill:#fff; stroke-width:0px;"/><path d="m99.54,40.26c-2.44,0-2.78-2-.8-5.66,1.54-2.85,4.51-6.07,7.21-6.14.74-.12,1.49.19,1.93.8.33.69.38,1.48.12,2.2h7.78c3.68-6.79-1.83-9.63-6.47-9.62-6.87,0-13.89,3.45-18.33,11.73-4.44,8.28-1.18,13.1,5.54,13.15,7,0,12.81-2.57,17-10h-8.39c-1.26,1.91-3.43,3.57-5.6,3.57" style="fill:#fff; stroke-width:0px;"/><path d="m79.39,35.37c-1.7,3.25-4,5.28-6.92,5.2-.91,0-2.31-.39-2-1.64.47-1.77,3-2.59,4.62-2.87l4.31-.76v.07m10-4c3.13-5.75,3.86-9.41-5.31-9.53-5.16-.07-9.1,1.13-12,3.22h0c-.24.17-.47.35-.69.54-1.33,1.12-2.44,2.48-3.28,4h8.32c.14-.17.47-.56.69-.77.11-.11.23-.21.36-.3.3-.26.64-.47,1-.63.44-.18.91-.29,1.39-.32.47-.05.95,0,1.41.13.21.07.39.2.51.39.11.26.11.54,0,.8-.15.45-.45.84-.84,1.12-.33.3-.73.52-1.16.65-.54.11-1.1.18-1.65.19-1.14.07-2.28.19-3.4.37-1.14.17-2.26.42-3.36.75-1.09.32-2.15.74-3.17,1.24-.97.49-1.9,1.07-2.75,1.75-.46.37-.89.78-1.3,1.21-2,2.15-5.12,7-1.82,9.54.18.14.37.27.57.38.86.46,1.83.68,2.81.66,3.36.05,6.65-.93,9.44-2.79h0c.07.23-.15,2.1,1.84,2.1h6.71c-.26-1.07-.19-2.2.2-3.23l5.48-11.47Z" style="fill:#fff; stroke-width:0px;"/><path d="m132.91,27.47c1,0,1.76.32,2,1.07.32.9.27,1.9-.15,2.76h-7.81c1.93-2.14,4.11-3.78,6-3.84m-2.35,10.77c-1.14,1.09-2.6,1.79-4.16,2-.14,0-.27,0-.41,0-2.13,0-2.66-1.52-1.43-4.36h15.67l2.34-4.59h0c3-6.64-2.37-9.45-6.78-9.44-6.88,0-13.9,3.45-18.33,11.73-4.43,8.28-1.24,13.1,5.48,13.1s12.83-2.57,16-8.46h-8.41l.03.02Z" style="fill:#fff; stroke-width:0px;"/><path d="m162.8,20.98h8.26l3.84-7.1h-27.1l-3.82,7.09h8.95l-12.72,25.17h9.7l12.89-25.16Z" style="fill:#fff; stroke-width:0px;"/><path d="m195.8,35.37c-1.74,3.3-4,5.3-7,5.2-.91,0-2.31-.39-2-1.64.48-1.77,3.06-2.59,4.62-2.87l4.31-.76v.07m10-4c3.14-5.75,3.87-9.41-5.3-9.53-5.16-.07-9.1,1.13-12,3.22h0c-.24.17-.47.35-.69.54-1.33,1.12-2.44,2.48-3.29,4h8.35c.14-.17.47-.56.69-.77.11-.11.23-.21.36-.3.3-.26.64-.47,1-.63.45-.18.92-.29,1.4-.32.47-.05.95,0,1.41.13.21.07.38.2.5.39.12.25.12.55,0,.8-.16.45-.45.84-.84,1.12-.36.3-.79.51-1.25.62-.54.11-1.1.18-1.65.19-1.14.07-2.28.19-3.41.37-1.13.17-2.25.42-3.35.75-1.09.32-2.15.74-3.17,1.24-.96.49-1.86,1.07-2.69,1.75-.46.37-.9.78-1.3,1.21-2,2.15-5.12,7-1.83,9.54.18.14.37.27.57.38.87.45,1.83.68,2.81.66,3.36.05,6.65-.93,9.45-2.79h0c.08.23-.14,2.1,1.85,2.1h6.7c-.26-1.07-.18-2.2.21-3.23l5.47-11.44Z" style="fill:#fff; stroke-width:0px;"/></g></svg>