<svg width="86" height="50" viewBox="0 0 86 50" fill="none" xmlns="http://www.w3.org/2000/svg">
<g id="Bell svg" clip-path="url(#clip0_366_1908)">
<g id="Group">
<path id="Vector" d="M63.9292 28.5911C63.5487 26.512 62.5973 24.6219 61.4557 23.1098C58.9823 19.7076 54.7013 17.723 49.1836 17.723C40.4314 17.723 35.1991 23.6768 33.5819 29.8197C32.25 25.4724 28.2544 22.4482 24.354 21.3142C27.3982 19.046 29.0155 15.9274 29.0155 12.3362C29.0155 9.02847 27.6836 6.00429 25.3053 4.01968C21.6903 0.9955 16.9336 0.428467 11.2257 0.428467H0V48.6263H9.60841C12.5575 48.6263 15.1261 48.6263 17.7898 48.5318C25.9712 48.2482 31.5841 44.09 33.3916 38.0417C34.0575 40.7823 35.104 43.0504 36.7212 44.7515C39.9557 48.1537 44.427 49.5713 49.0885 49.5713C54.7965 49.5713 58.8872 47.9647 61.646 45.5076L57.6504 40.8768C55.6527 42.4834 52.9889 43.2395 50.135 43.2395C44.427 43.2395 41.9535 39.6482 41.6681 36.1515H64.0243V48.7208H72.396V0.522972H64.0243L63.9292 28.5911ZM8.56195 6.85484H10.8451C13.1283 6.85484 14.8407 7.13836 16.1726 7.61088C18.646 8.55594 19.8827 10.6351 19.8827 12.9977C19.8827 15.0768 19.1217 18.3845 14.5553 19.3296C13.7942 19.4241 12.7478 19.6131 11.2257 19.6131H8.56195V6.85484ZM17.9801 41.5384C16.9336 41.6329 15.6969 41.8219 14.5553 41.8219H8.56195V26.0395H13.9845C15.6969 26.0395 17.5996 26.134 18.7412 26.4175C22.5465 27.457 24.7345 30.1032 24.7345 33.5999C24.7345 37.4746 22.7367 40.5933 17.9801 41.5384ZM41.7633 29.8197C42.5243 26.2285 45.0929 23.7713 48.8982 23.7713C52.7035 23.7713 55.2721 26.0395 56.0332 29.8197H41.7633ZM77.8186 0.522972H86V48.4373H77.8186V0.522972Z" fill="#00549A"/>
</g>
</g>
<defs>
<clipPath id="clip0_366_1908">
<rect width="86" height="49.1429" fill="white" transform="translate(0 0.428467)"/>
</clipPath>
</defs>
</svg>
