<svg width="194" height="46" viewBox="0 0 194 46" fill="none" xmlns="http://www.w3.org/2000/svg">
<g id="Cenovus Energy svg">
<g id="g2826">
<g id="g14858">
<path id="path8808" d="M92.0452 38.9384L92.4353 37.5033H87.4109L87.3927 37.5708L85.6228 44.084H90.6958L91.0844 42.6489H87.6113L87.9301 41.4781H90.9341L91.3272 40.0626H88.3217L88.6238 38.9383L92.0452 38.9384Z" fill="#B66721"/>
<path id="path8810" d="M108.966 37.5033L107.905 41.3926L106.101 37.5033H104.658L104.638 37.5708L102.87 44.084H104.465L105.556 40.0626L107.433 44.084H108.773L110.561 37.5033L108.966 37.5033Z" fill="#B66721"/>
<path id="path8812" d="M127.658 38.9384L128.049 37.5018H123.023L123.007 37.5708L121.237 44.084H126.308L126.7 42.6489H123.224L123.543 41.4781H126.55L126.94 40.0611H123.936L124.238 38.9383L127.658 38.9384Z" fill="#B66721"/>
<path id="path8814" d="M143.669 39.6409C143.669 39.8826 143.58 40.0763 143.428 40.2249C143.179 40.474 142.729 40.6106 142.192 40.6106H141.046L141.494 38.955L142.617 38.9566C143.057 38.955 143.347 39.0481 143.493 39.1952C143.616 39.3183 143.669 39.4398 143.669 39.6409ZM145.343 39.5224C145.343 38.9821 145.16 38.5077 144.817 38.17C144.358 37.7166 143.672 37.505 142.699 37.505H140.272L140.254 37.5711L138.482 44.0842H140.099L140.653 42.0352H141.588L142.584 44.0842H144.411L143.296 41.8687C143.894 41.7156 144.37 41.4544 144.723 41.1046C145.123 40.7113 145.343 40.1559 145.343 39.5224Z" fill="#B66721"/>
<path id="path8816" d="M159.964 41.6164H161.394L161.136 42.499C160.864 42.6176 160.521 42.7212 160.057 42.7212C159.176 42.7148 158.501 42.2228 158.496 41.2786C158.496 39.9907 159.523 38.8679 160.854 38.8649C161.64 38.8665 162.115 39.1771 162.486 39.5734L162.545 39.6409L163.733 38.6007L163.68 38.5346C163.21 37.9282 162.355 37.3908 160.965 37.3923C158.583 37.3923 156.831 39.2807 156.831 41.3236C156.834 43.293 158.454 44.1906 159.966 44.1921C160.951 44.1921 161.71 43.9415 162.358 43.5782L163.349 40.2173H160.347L159.964 41.6164Z" fill="#B66721"/>
<path id="path8818" d="M179.766 37.5035L177.632 40.0523L176.901 37.5035H175.121L176.496 41.4739L175.786 44.0842H177.402L178.076 41.6209L181.732 37.5035H179.766Z" fill="#B66721"/>
<path id="path8820" d="M7.12663 20.9526C7.12663 13.2746 13.5536 7.09324 21.1373 7.09324C26.3681 7.09324 29.2522 9.46045 30.8916 12.2675L25.7473 15.861C24.5527 14.0658 23.2654 12.7928 20.6045 12.7928C17.057 12.7928 13.7752 16.61 13.7752 20.9526C13.7752 23.9758 15.8154 25.9047 18.4308 25.9047C20.518 25.9047 22.0238 25.0716 23.7998 23.5826L27.2561 27.9221C24.7743 30.1152 22.2454 31.5623 18.2107 31.5623C11.7351 31.5623 7.12663 27.3502 7.12663 20.9526Z" fill="#005568"/>
<path id="path8822" d="M48.811 17.4416C48.9431 17.0033 49.0326 16.478 49.0326 15.9076C49.0326 13.9772 47.8805 12.4446 45.1315 12.4446C42.0698 12.4446 39.5849 14.4605 38.4799 17.4416H48.811ZM43.313 26.2124C45.0875 26.2124 46.6373 25.6855 48.5894 24.3256L51.6936 28.449C49.5639 30.2008 46.5933 31.5623 42.5586 31.5623C35.7293 31.5623 31.5611 27.6144 31.5611 21.1253C31.5611 14.3269 37.1501 7.09324 45.6643 7.09324C51.8287 7.09324 55.3746 11.0396 55.3746 16.2603C55.3746 17.9265 54.9314 19.8088 54.1769 21.6071H37.9015C38.1231 24.3706 39.7656 26.2124 43.313 26.2124Z" fill="#005568"/>
<path id="path8824" d="M164.019 27.3067L167.92 23.3184C170.408 25.7741 173.069 26.4766 175.195 26.4766C176.965 26.4766 178.035 25.7291 178.035 24.4156C178.035 23.536 176.923 22.9236 175.282 22.2226C171.558 20.6419 168.369 19.1063 168.369 15.3371C168.369 10.6463 172 7.09324 177.899 7.09324C181.757 7.09324 185.305 8.75945 187.26 10.4692L183.62 14.6812C181.316 12.8829 179.362 12.1804 177.415 12.1804C175.774 12.1804 174.796 12.9249 174.796 14.1528C174.796 15.0759 175.947 15.7334 177.943 16.6101C181.047 17.9685 184.464 19.5912 184.464 23.2748C184.464 28.4055 180.384 31.5623 174.703 31.5623C171.114 31.5623 166.813 30.2008 164.019 27.3067Z" fill="#005568"/>
<path id="path8826" d="M104.553 18.1442C104.553 14.7232 102.469 12.7928 99.4103 12.7928C95.286 12.7928 92.5795 17.1775 92.5795 20.5128C92.5795 23.9338 94.6636 25.8627 97.7223 25.8627C101.85 25.8627 104.553 21.475 104.553 18.1442ZM85.9734 20.6885C85.9734 13.6724 92.0938 7.09324 99.7199 7.09324C106.769 7.09324 111.161 11.6956 111.161 17.9685C111.161 24.9846 105.04 31.5623 97.4157 31.5623C90.3633 31.5623 85.9734 26.9569 85.9734 20.6885Z" fill="#005568"/>
<path id="path8828" d="M77.2877 34.4592L81.6275 18.4053C82.0267 16.9177 82.4259 15.2485 82.4259 13.9321C82.4259 9.67951 80.0154 7.53301 75.7576 7.53301H69.6099H62.8687L56.5282 31.0353H60.9713C62.6274 31.0353 63.6474 29.6513 64.0755 28.0677L66.8594 17.8364C66.8642 17.8228 66.87 17.8078 66.8746 17.7943L68.1284 13.147H72.0037C74.0864 13.147 75.2855 14.1527 75.2855 16.038C75.2855 16.6099 75.1535 17.4866 74.9759 18.144L69.7496 37.4238H74.185C75.8411 37.4238 76.8596 36.0414 77.2877 34.4592Z" fill="#005568"/>
<path id="path8830" d="M160.643 7.5331C159.516 7.82881 158.502 8.42169 157.991 9.31333L155.744 17.5692L153.624 25.4244H149.742C147.658 25.4244 146.458 24.4156 146.458 22.5273C146.458 21.9584 146.594 21.0832 146.767 20.4228L150.275 7.5331H145.705C144.577 7.82881 143.558 8.42621 143.05 9.32085L140.119 20.1631C139.718 21.6507 139.317 23.3184 139.317 24.6348C139.317 28.8873 141.975 31.0354 146.233 31.0354H152.138H158.874L165.216 7.5331H160.643Z" fill="#005568"/>
<path id="path8832" d="M138.819 1.80796H138.198C136.831 1.88605 135.71 2.52245 135.006 3.78336L123.001 23.1847L122.163 10.8489C122 9.19772 120.778 7.53307 119.118 7.53307H115.016L117.899 31.2095H124.021L143.457 1.80796H138.819Z" fill="#005568"/>
</g>
</g>
</g>
</svg>
