<svg width="70" height="65" viewBox="0 0 70 65" fill="none" xmlns="http://www.w3.org/2000/svg">
<g id="US Foods svg" clip-path="url(#clip0_202_1982)">
<g id="layer1">
<g id="g6002">
<path id="path5901" d="M57.9372 54.8094C56.033 54.0571 55.2251 53.7478 55.2251 52.9447C55.2251 52.2365 55.899 51.7606 57.13 51.7606C58.6276 51.7606 59.7486 52.2081 60.397 52.5189L61.2484 49.0877C60.2615 48.6395 58.9631 48.2861 57.1757 48.2861C54.0697 48.2861 51.9948 49.7332 51.3351 51.7957C50.8925 51.0651 50.3317 50.463 49.6772 49.9864C48.1983 48.9016 46.366 48.4049 43.4772 48.4049C41.6875 48.4049 39.9646 48.5207 38.6661 48.7582V53.4385C37.7826 50.4906 35.4748 48.2637 31.7615 48.2637C28.3275 48.2637 25.8692 50.2889 24.8239 53.2226C23.8931 50.3816 21.6048 48.2637 17.9844 48.2637C13.9079 48.2637 11.204 51.1137 10.6109 54.9543H5.52586V52.0221H11.1658V48.5207H1.47485V64.459H5.52586V58.4056H10.6439C11.2594 61.9781 13.7184 64.7175 17.735 64.7175H17.7597C21.2289 64.7175 23.7321 62.8872 24.77 59.8101C25.7314 62.6713 28.0414 64.7175 31.5144 64.7175H31.5361C35.1535 64.7175 37.7152 62.7214 38.6661 59.403V64.3612C39.4471 64.5046 40.7508 64.648 42.6939 64.648C45.6494 64.648 48.1339 64.0556 49.7888 62.6818C51.2138 61.5052 52.3542 59.4642 52.4028 56.3191C53.1397 57.0438 54.1543 57.616 55.3613 58.0754C57.0649 58.6873 57.7335 59.1146 57.7335 59.8931C57.7335 60.6969 57.0649 61.1974 55.6736 61.1974C54.8529 61.1974 54.0487 61.0494 53.3351 60.8396C52.787 62.0408 52.0359 62.9993 51.1763 63.7038C51.1485 63.7283 51.1179 63.7487 51.0895 63.7694C51.9678 64.2288 53.6758 64.6935 55.4288 64.6935C59.8377 64.6935 61.8505 62.3545 61.8505 59.6113C61.8505 57.3873 60.6441 55.8762 57.9372 54.8094ZM17.938 61.3377H17.8915C15.9454 61.3377 14.7376 59.3521 14.7593 56.4924C14.7593 53.7245 15.9454 51.644 17.8915 51.644C19.8646 51.644 21.0283 53.7245 21.0283 56.4677C21.0283 59.3521 19.8841 61.3377 17.938 61.3377ZM31.7143 61.3377H31.6717C29.7233 61.3377 28.5147 59.3521 28.5357 56.4924C28.5357 53.7245 29.7233 51.644 31.6717 51.644C33.6403 51.644 34.8046 53.7245 34.8046 56.4677C34.8046 59.3521 33.6612 61.3377 31.7143 61.3377ZM43.5678 61.3377C43.2975 61.3377 42.9186 61.3377 42.7209 61.2884V51.762C42.9186 51.715 43.32 51.6694 43.9489 51.6694C46.3661 51.6694 48.134 53.1359 48.134 56.2526C48.134 59.8459 46.1871 61.3848 43.5678 61.3377Z" fill="#EC4025"/>
<path id="path5905" d="M64.5267 45.7611C61.7209 45.7611 60.1821 43.6298 60.1821 41.0935C60.1821 38.4348 61.8984 36.3198 64.6727 36.3198C67.5847 36.3198 69.0614 38.502 69.0614 40.9448C69.0614 43.8882 67.3159 45.7611 64.5401 45.7611" fill="#558618"/>
<path id="path5909" d="M50.3392 19.03C45.281 16.9779 43.7018 16.0777 43.7018 13.9015C43.7018 11.9779 45.4884 10.6945 48.7614 10.6945C52.8042 10.6945 55.7792 11.9779 57.5059 12.7488L59.765 3.52122C57.0903 2.23779 53.6968 1.27783 48.8768 1.27783C42.2154 1.27783 37.3363 3.8365 34.7806 7.76301V1.97859H24.0137V26.5275C24.0137 33.3839 21.9305 36.718 17.6437 36.718C13.4197 36.718 11.2796 33.0014 11.2796 26.4632V1.97859H0.570312V25.566C0.570312 39.4104 6.34129 45.8814 17.3501 45.8814C28.5933 45.8814 34.7806 39.1504 34.7806 25.823V21.7411C36.5935 24.4036 39.5662 26.387 43.4936 27.8714C48.0156 29.5411 49.8 30.758 49.8 32.8124C49.8 34.9841 48.065 36.3333 44.3817 36.3333C42.4566 36.3333 40.1555 35.9598 37.978 35.3293C37.489 37.1274 36.8421 38.8165 36.0094 40.3756C35.2561 41.7995 34.3388 43.0881 33.2973 44.2378C36.8241 45.3584 40.7972 45.8896 43.7632 45.8896C55.4819 45.8896 60.8081 39.4731 60.8081 32.037C60.8081 26.0127 57.5359 21.9129 50.3392 19.03Z" fill="#558618"/>
<path id="path5913" d="M63.0044 49.0264C63.6768 49.0264 64.2144 49.5553 64.2144 50.1992C64.2144 50.8566 63.6768 51.3863 62.9969 51.3863C62.3185 51.3863 61.7666 50.8566 61.7666 50.1992C61.7666 49.5553 62.3185 49.0264 62.9969 49.0264H63.0044ZM62.9831 49.3409C62.5129 49.3409 62.1565 49.7226 62.1565 50.2067C62.1565 50.6893 62.5129 51.071 62.9899 51.071C63.4743 51.0795 63.8308 50.6893 63.8308 50.1992C63.8308 49.7226 63.4743 49.3409 62.9899 49.3409H62.9831ZM62.8626 50.7364H62.4926V49.6897C62.5601 49.6813 62.754 49.6487 62.9899 49.6487C63.2527 49.6487 63.3605 49.6823 63.4406 49.7361C63.5081 49.7831 63.5552 49.8632 63.5552 49.964C63.5552 50.0656 63.4542 50.1664 63.2992 50.1993V50.212C63.4272 50.2531 63.4947 50.339 63.5283 50.4869C63.5627 50.6408 63.589 50.7028 63.6024 50.7357H63.192C63.1583 50.6946 63.1381 50.6086 63.118 50.5273C63.1052 50.4265 63.0505 50.3793 62.9562 50.3793H62.8626L62.8626 50.7364ZM62.8753 50.1395H62.9553C63.0767 50.1395 63.1304 50.0848 63.1304 50.0183C63.1304 49.9368 63.0631 49.9034 62.9695 49.9034C62.9358 49.9034 62.9023 49.9118 62.8753 49.9118" fill="#EC4025"/>
</g>
</g>
</g>
<defs>
<clipPath id="clip0_202_1982">
<rect width="69.0526" height="64" fill="white" transform="translate(0.289551 0.997559)"/>
</clipPath>
</defs>
</svg>
