<svg width="100" height="20" viewBox="0 0 100 20" fill="none" xmlns="http://www.w3.org/2000/svg">
<path d="M18.96 7.84176L12.6025 7.17051L10 1.33301L7.39752 7.17051L1.04002 7.84176L5.78877 12.1218L4.46252 18.3736L10 15.1811L15.5375 18.3749L14.2113 12.1224L18.96 7.84176Z" fill="#F59E0B"/>
<path d="M38.96 7.84176L32.6025 7.17051L30 1.33301L27.3975 7.17051L21.04 7.84176L25.7888 12.1218L24.4625 18.3736L30 15.1811L35.5375 18.3749L34.2113 12.1224L38.96 7.84176Z" fill="#F59E0B"/>
<path d="M58.96 7.84176L52.6025 7.17051L50 1.33301L47.3975 7.17051L41.04 7.84176L45.7888 12.1218L44.4625 18.3736L50 15.1811L55.5375 18.3749L54.2113 12.1224L58.96 7.84176Z" fill="#F59E0B"/>
<path d="M78.96 7.84176L72.6025 7.17051L70 1.33301L67.3975 7.17051L61.04 7.84176L65.7888 12.1218L64.4625 18.3736L70 15.1811L75.5375 18.3749L74.2113 12.1224L78.96 7.84176Z" fill="#F59E0B"/>
<path d="M98.96 7.84176L92.6025 7.17051L90 1.33301L87.3975 7.17051L81.04 7.84176L85.7888 12.1218L84.4625 18.3736L90 15.1811L95.5375 18.3749L94.2113 12.1224L98.96 7.84176Z" fill="#F59E0B"/>
</svg>
